#!OML:ASF F:\VICON\USERDATA\INSTALL\rory3\rory3.ASF
:FULLY-SPECIFIED
:DEGREES
724
root 4.5566 17.3817 2.49012 5.45421 -10.9338 -5.50561
lowerback 12.114 -0.0985428 3.69715
upperback 5.10887 0.283677 1.30574
thorax -1.42971 0.160822 -0.761958
lowerneck -12.419 -0.327274 -2.51296
upperneck 36.3942 0.119078 -0.113039
head 14.6359 -0.362612 0.4051
rclavicle 1.48095e-014 -1.19271e-015
rhumerus -32.9522 -2.63253 -16.3643
rradius 35.6694
rwrist 8.35359
rhand -20.0663 -46.9834
rfingers 7.12502
rthumb 6.27577 -76.8705
lclavicle 1.48095e-014 -1.19271e-015
lhumerus -31.7879 3.37236 12.7695
lradius 28.0866
lwrist 9.72564
lhand -25.7546 -39.2186
lfingers 7.12502
lthumb 0.782748 -9.24033
rfemur -99.466 2.29656 28.0011
rtibia 98.1017
rfoot 47.8609 3.7325
rtoes -4.36668
lfemur -18.2194 1.19638 -23.4868
ltibia 30.3933
lfoot -14.2884 7.10627
ltoes 11.5529
725
root 4.55641 17.3822 2.493 5.43286 -10.8085 -5.42797
lowerback 12.0452 -0.153759 3.63965
upperback 5.19479 0.197578 1.2758
thorax -1.3065 0.120297 -0.749298
lowerneck -12.5858 -0.318165 -2.42993
upperneck 36.3829 0.131993 -0.16028
head 14.6688 -0.352187 0.372815
rclavicle 1.87852e-014 8.94531e-015
rhumerus -32.7228 -2.97183 -16.322
rradius 35.4568
rwrist 8.49365
rhand -19.8065 -46.9007
rfingers 7.12502
rthumb 6.52661 -76.7801
lclavicle 1.87852e-014 8.94531e-015
lhumerus -31.6709 3.61945 12.6801
lradius 28.5405
lwrist 10.3306
lhand -24.9958 -36.5337
lfingers 7.12502
lthumb 1.51563 -6.55937
rfemur -99.4821 2.16649 27.9201
rtibia 98.0908
rfoot 47.8084 3.65633
rtoes -4.27741
lfemur -18.1848 1.13885 -23.5606
ltibia 30.345
lfoot -14.2735 6.99644
ltoes 11.7568
726
root 4.55425 17.3863 2.49208 5.47761 -10.7342 -5.53999
lowerback 12.098 -0.1663 3.73312
upperback 5.13125 0.197309 1.31549
thorax -1.40082 0.11898 -0.760713
lowerneck -12.5203 -0.325733 -2.43182
upperneck 36.4 0.111581 -0.13991
head 14.662 -0.358498 0.378374
rclavicle -1.66482e-014 -4.77083e-015
rhumerus -32.5981 -3.15407 -16.2031
rradius 35.071
rwrist 8.77763
rhand -20.2757 -46.1818
rfingers 7.12502
rthumb 6.07362 -76.0748
lclavicle -1.66482e-014 -4.77083e-015
lhumerus -31.6321 3.35815 12.7503
lradius 28.5837
lwrist 10.322
lhand -25.2171 -36.761
lfingers 7.12502
lthumb 1.30189 -6.78522
rfemur -99.45 2.17693 28.0301
rtibia 98.0144
rfoot 47.6246 3.59232
rtoes -4.61994
lfemur -18.2234 1.10517 -23.4059
ltibia 30.3228
lfoot -14.2513 6.93199
ltoes 12.1825
727
root 4.55406 17.3889 2.48934 5.47249 -10.7039 -5.6029
lowerback 12.2327 -0.171301 3.80528
upperback 5.0776 0.207796 1.32636
thorax -1.52881 0.122423 -0.791603
lowerneck -12.4552 -0.319431 -2.3876
upperneck 36.4225 0.122648 -0.18463
head 14.6574 -0.35393 0.3538
rclavicle 7.30534e-015 -3.3197e-014
rhumerus -32.5261 -3.21891 -16.1425
rradius 34.795
rwrist 8.83648
rhand -20.8317 -45.6356
rfingers 7.12502
rthumb 5.53681 -75.5433
lclavicle 7.30534e-015 -3.3197e-014
lhumerus -31.5594 3.26117 12.7402
lradius 28.5211
lwrist 10.2739
lhand -25.1169 -36.7395
lfingers 7.12502
lthumb 1.39863 -6.76432
rfemur -99.4031 2.19148 28.0873
rtibia 97.9424
rfoot 47.5776 3.68953
rtoes -5.11508
lfemur -18.2332 1.01466 -23.3204
ltibia 30.3291
lfoot -14.2151 7.0138
ltoes 12.4062
728
root 4.55586 17.3896 2.48822 5.44876 -10.6516 -5.58156
lowerback 12.261 -0.212191 3.81567
upperback 5.12821 0.15397 1.30071
thorax -1.49325 0.0970285 -0.816932
lowerneck -12.5478 -0.296473 -2.31536
upperneck 36.4355 0.162373 -0.248271
head 14.6846 -0.33616 0.320822
rclavicle 8.94531e-016 -2.76311e-014
rhumerus -32.4144 -3.31718 -16.1662
rradius 34.6928
rwrist 8.79473
rhand -21.0862 -45.4678
rfingers 7.12502
rthumb 5.29107 -75.3817
lclavicle 8.94531e-016 -2.76311e-014
lhumerus -31.4527 3.36867 12.6537
lradius 28.3557
lwrist 10.0961
lhand -24.9221 -36.2146
lfingers 7.12502
lthumb 1.58681 -6.24073
rfemur -99.386 2.12082 28.0684
rtibia 97.8798
rfoot 47.6977 3.76567
rtoes -5.18264
lfemur -18.2354 0.920677 -23.356
ltibia 30.3673
lfoot -14.1822 7.07345
ltoes 12.4637
729
root 4.55568 17.3895 2.48673 5.50487 -10.5944 -5.65306
lowerback 12.2731 -0.247102 3.85819
upperback 5.13512 0.113761 1.32723
thorax -1.49395 0.0773083 -0.807913
lowerneck -12.6914 -0.287001 -2.30355
upperneck 36.5039 0.181256 -0.257781
head 14.7501 -0.329002 0.317625
rclavicle 7.05686e-015 1.78906e-014
rhumerus -32.2926 -3.53165 -16.1173
rradius 34.5363
rwrist 9.02301
rhand -21.4512 -45.2126
rfingers 7.12502
rthumb 4.93865 -75.1351
lclavicle 7.05686e-015 1.78906e-014
lhumerus -31.4195 3.37714 12.6185
lradius 28.3441
lwrist 10.0192
lhand -24.6179 -34.9191
lfingers 7.12502
lthumb 1.88059 -4.94769
rfemur -99.4245 2.09904 28.1491
rtibia 97.8143
rfoot 47.7876 3.72925
rtoes -5.23555
lfemur -18.3191 0.905763 -23.2815
ltibia 30.4288
lfoot -14.1795 7.06005
ltoes 12.1912
